<?xml version="1.0" standalone="no"?>
<!DOCTYPE svg PUBLIC "-//W3C//DTD SVG 20010904//EN"
 "http://www.w3.org/TR/2001/REC-SVG-20010904/DTD/svg10.dtd">
<svg version="1.0" xmlns="http://www.w3.org/2000/svg"
 width="400.000000pt" height="400.000000pt" viewBox="0 0 400.000000 400.000000"
 preserveAspectRatio="xMidYMid meet">

<g transform="translate(0.000000,400.000000) scale(0.100000,-0.100000)"
fill="#000000" stroke="none">
<path d="M892 3421 c-208 -72 -275 -327 -129 -487 35 -39 114 -79 172 -88 37
-6 39 -5 21 9 -18 14 -18 15 -2 15 9 0 15 4 11 9 -6 10 199 216 215 216 5 0
15 6 22 14 11 12 10 13 -4 8 -10 -4 -18 -2 -18 4 0 6 -6 7 -12 3 -10 -5 -10
-4 -1 6 9 10 18 11 35 3 13 -5 31 -9 41 -7 9 1 17 -2 17 -7 0 -5 4 -9 9 -9 19
0 5 105 -21 161 -31 67 -94 122 -172 149 -69 25 -115 25 -184 1z"/>
<path d="M1863 3422 c-92 -33 -168 -110 -192 -197 -7 -26 -11 -181 -11 -450 0
-458 3 -483 67 -615 28 -56 57 -95 117 -155 115 -115 233 -172 389 -190 l57
-6 0 510 0 510 383 3 382 3 57 28 c67 33 112 80 146 155 20 45 23 65 20 130
-6 122 -59 205 -170 264 l-43 23 -575 2 c-532 2 -579 1 -627 -15z"/>
<path d="M1230 3100 c-8 -5 -12 -12 -9 -15 4 -3 12 1 19 10 14 17 11 19 -10 5z"/>
<path d="M1205 3050 c-3 -5 -1 -10 4 -10 6 0 11 5 11 10 0 6 -2 10 -4 10 -3 0
-8 -4 -11 -10z"/>
<path d="M1246 3045 c-3 -8 -1 -15 4 -15 6 0 10 7 10 15 0 8 -2 15 -4 15 -2 0
-6 -7 -10 -15z"/>
<path d="M1661 1239 c1 -423 6 -490 27 -369 7 41 14 83 16 92 3 24 37 60 52
54 7 -3 18 1 24 9 9 11 6 14 -13 17 -23 3 -22 5 24 50 l49 46 0 -34 c0 -19 4
-34 8 -34 16 0 44 39 39 53 -9 25 39 57 85 57 59 0 108 -20 108 -43 0 -11 20
-41 44 -67 45 -48 67 -101 71 -170 1 -19 5 -62 9 -95 15 -125 22 -131 57 -52
21 47 23 71 27 232 4 180 4 181 -27 273 -17 51 -35 98 -41 105 -5 7 -29 36
-52 66 -50 63 -144 130 -226 162 -43 17 -85 23 -169 27 l-113 4 1 -383z m596
-381 c-3 -8 -6 -5 -6 6 -1 11 2 17 5 13 3 -3 4 -12 1 -19z"/>
<path d="M1680 776 c0 -9 5 -16 10 -16 6 0 10 4 10 9 0 6 -4 13 -10 16 -5 3
-10 -1 -10 -9z"/>
<path d="M1752 745 c0 -16 2 -22 5 -12 2 9 2 23 0 30 -3 6 -5 -1 -5 -18z"/>
<path d="M1719 733 c-5 -15 0 -28 18 -45 18 -17 22 -18 17 -5 -3 9 -10 17 -14
17 -5 0 -10 12 -12 28 -3 25 -4 25 -9 5z"/>
<path d="M2193 690 c0 -29 2 -30 16 -14 12 12 13 18 3 21 -6 3 -10 9 -6 14 3
5 1 9 -4 9 -5 0 -9 -14 -9 -30z"/>
<path d="M2160 640 c-9 -6 -10 -10 -3 -10 6 0 15 5 18 10 8 12 4 12 -15 0z"/>
</g>
</svg>
